HIERARCHY
ROOT reference
{
  OFFSET 0 0 0
  CHANNELS 6 Xposition Yposition Zposition Zrotation Xrotation Yrotation
  JOINT Hips
  {
    OFFSET 370.543 87.5 183.721
    CHANNELS 3 Zrotation Xrotation Yrotation
    JOINT RightUpLeg
    {
      OFFSET -9.29072 -1.53718 -0.00769521
      CHANNELS 3 Zrotation Xrotation Yrotation
      JOINT RightLeg
      {
        OFFSET 0.000649198 -41.8926 0.0287464
        CHANNELS 3 Zrotation Xrotation Yrotation
        JOINT RightFoot
        {
          OFFSET -0.131981 -42.8927 0.241786
          CHANNELS 3 Zrotation Xrotation Yrotation
          End Site
          {
            OFFSET 0 -7.69 17.5
          }
        }
      }
    }
    JOINT LeftUpLeg
    {
      OFFSET 9.29816 -1.6623 -0.0330144
      CHANNELS 3 Zrotation Xrotation Yrotation
      JOINT LeftLeg
      {
        OFFSET 0.0555409 -41.8801 -0.0492089
        CHANNELS 3 Zrotation Xrotation Yrotation
        JOINT LeftFoot
        {
          OFFSET 0.737583 -41.1094 -0.206555
          CHANNELS 3 Zrotation Xrotation Yrotation
          End Site
          {
            OFFSET 0 -7.69 17.5
          }
        }
      }
    }
    JOINT Spine
    {
      OFFSET 0.0742767 14.2946 0.0485675
      CHANNELS 3 Zrotation Xrotation Yrotation
      JOINT Spine1
      {
        OFFSET 0.0332084 9.70841 0.0159593
        CHANNELS 3 Zrotation Xrotation Yrotation
        JOINT Spine2
        {
          OFFSET 0.0388468 10.1231 0.00288192
          CHANNELS 3 Zrotation Xrotation Yrotation
          JOINT Spine3
          {
            OFFSET 0.0300771 9.71993 0.00776905
            CHANNELS 3 Zrotation Xrotation Yrotation
            JOINT Neck
            {
              OFFSET 0.058413 10.382 0.0516165
              CHANNELS 3 Zrotation Xrotation Yrotation
              JOINT Head
              {
                OFFSET 0.0298281 9.47849 0.0268718
                CHANNELS 3 Zrotation Xrotation Yrotation
                End Site
                {
                  OFFSET 0 15.95 0
                }
              }
            }
            JOINT RightShoulder
            {
              OFFSET -3.15612 6.91385 0.0353801
              CHANNELS 3 Zrotation Xrotation Yrotation
              JOINT RightArm
              {
                OFFSET -12.7781 -0.0057607 0.0332486
                CHANNELS 3 Zrotation Xrotation Yrotation
                JOINT RightForeArm
                {
                  OFFSET -26.4999 -0.0425897 0.0409183
                  CHANNELS 3 Zrotation Xrotation Yrotation
                  JOINT RightHand
                  {
                    OFFSET -25.993 -0.0294641 0.00108206
                    CHANNELS 3 Zrotation Xrotation Yrotation
                    JOINT RightHandThumb1
                    {
                      OFFSET -2.48905 0.190105 3.12053
                      CHANNELS 3 Zrotation Xrotation Yrotation
                      JOINT RightHandThumb2
                      {
                        OFFSET -3.68274 0 0
                        CHANNELS 3 Zrotation Xrotation Yrotation
                        JOINT RightHandThumb3
                        {
                          OFFSET -2.55832 0 0
                          CHANNELS 3 Zrotation Xrotation Yrotation
                          End Site
                          {
                            OFFSET -2.194 0 0
                          }
                        }
                      }
                    }
                    JOINT RightInHandIndex
                    {
                      OFFSET -3.22368 0.508421 1.97842
                      CHANNELS 3 Zrotation Xrotation Yrotation
                      JOINT RightHandIndex1
                      {
                        OFFSET -5.21684 -0.091368 0.999158
                        CHANNELS 3 Zrotation Xrotation Yrotation
                        JOINT RightHandIndex2
                        {
                          OFFSET -3.61937 0 0
                          CHANNELS 3 Zrotation Xrotation Yrotation
                          JOINT RightHandIndex3
                          {
                            OFFSET -2.0521 0 0
                            CHANNELS 3 Zrotation Xrotation Yrotation
                            End Site
                            {
                              OFFSET -1.805 0 0
                            }
                          }
                        }
                      }
                    }
                    JOINT RightInHandMiddle
                    {
                      OFFSET -3.38211 0.517263 0.756737
                      CHANNELS 3 Zrotation Xrotation Yrotation
                      JOINT RightHandMiddle1
                      {
                        OFFSET -5.17411 -0.084 0.313895
                        CHANNELS 3 Zrotation Xrotation Yrotation
                        JOINT RightHandMiddle2
                        {
                          OFFSET -3.94947 0 0
                          CHANNELS 3 Zrotation Xrotation Yrotation
                          JOINT RightHandMiddle3
                          {
                            OFFSET -2.47579 0 0
                            CHANNELS 3 Zrotation Xrotation Yrotation
                            End Site
                            {
                              OFFSET -1.975 0 0
                            }
                          }
                        }
                      }
                    }
                    JOINT RightInHandRing
                    {
                      OFFSET -3.36516 0.537895 -0.128947
                      CHANNELS 3 Zrotation Xrotation Yrotation
                      JOINT RightHandRing1
                      {
                        OFFSET -4.63474 -0.022105 -0.478947
                        CHANNELS 3 Zrotation Xrotation Yrotation
                        JOINT RightHandRing2
                        {
                          OFFSET -3.44238 0 0
                          CHANNELS 3 Zrotation Xrotation Yrotation
                          JOINT RightHandRing3
                          {
                            OFFSET -2.3881 0 0
                            CHANNELS 3 Zrotation Xrotation Yrotation
                            End Site
                            {
                              OFFSET -1.857 0 0
                            }
                          }
                        }
                      }
                    }
                    JOINT RightInHandPinky
                    {
                      OFFSET -3.16105 0.469368 -1.20179
                      CHANNELS 3 Zrotation Xrotation Yrotation
                      JOINT RightHandPinky1
                      {
                        OFFSET -4.14105 -0.022105 -1.09053
                        CHANNELS 3 Zrotation Xrotation Yrotation
                        JOINT RightHandPinky2
                        {
                          OFFSET -2.75653 0 0
                          CHANNELS 3 Zrotation Xrotation Yrotation
                          JOINT RightHandPinky3
                          {
                            OFFSET -1.74189 0 0
                            CHANNELS 3 Zrotation Xrotation Yrotation
                            End Site
                            {
                              OFFSET -1.645 0 0
                            }
                          }
                        }
                      }
                    }
                  }
                }
              }
            }
            JOINT LeftShoulder
            {
              OFFSET 3.24463 6.9123 -0.0189685
              CHANNELS 3 Zrotation Xrotation Yrotation
              JOINT LeftArm
              {
                OFFSET 12.8793 -0.0485389 -0.0634723
                CHANNELS 3 Zrotation Xrotation Yrotation
                JOINT LeftForeArm
                {
                  OFFSET 26.4894 0.00252616 -0.136149
                  CHANNELS 3 Zrotation Xrotation Yrotation
                  JOINT LeftHand
                  {
                    OFFSET 26.005 0.0292639 -0.0166184
                    CHANNELS 3 Zrotation Xrotation Yrotation
                    JOINT LeftHandThumb1
                    {
                      OFFSET 2.48905 0.190105 3.12053
                      CHANNELS 3 Zrotation Xrotation Yrotation
                      JOINT LeftHandThumb2
                      {
                        OFFSET 3.68274 0 0
                        CHANNELS 3 Zrotation Xrotation Yrotation
                        JOINT LeftHandThumb3
                        {
                          OFFSET 2.55832 0 0
                          CHANNELS 3 Zrotation Xrotation Yrotation
                          End Site
                          {
                            OFFSET 2.194 0 0
                          }
                        }
                      }
                    }
                    JOINT LeftInHandIndex
                    {
                      OFFSET 3.22368 0.508421 1.97842
                      CHANNELS 3 Zrotation Xrotation Yrotation
                      JOINT LeftHandIndex1
                      {
                        OFFSET 5.21684 -0.091368 0.999158
                        CHANNELS 3 Zrotation Xrotation Yrotation
                        JOINT LeftHandIndex2
                        {
                          OFFSET 3.61937 0 0
                          CHANNELS 3 Zrotation Xrotation Yrotation
                          JOINT LeftHandIndex3
                          {
                            OFFSET 2.0521 0 0
                            CHANNELS 3 Zrotation Xrotation Yrotation
                            End Site
                            {
                              OFFSET 1.805 0 0
                            }
                          }
                        }
                      }
                    }
                    JOINT LeftInHandMiddle
                    {
                      OFFSET 3.38211 0.517263 0.756737
                      CHANNELS 3 Zrotation Xrotation Yrotation
                      JOINT LeftHandMiddle1
                      {
                        OFFSET 5.17411 -0.084 0.313895
                        CHANNELS 3 Zrotation Xrotation Yrotation
                        JOINT LeftHandMiddle2
                        {
                          OFFSET 3.94947 0 0
                          CHANNELS 3 Zrotation Xrotation Yrotation
                          JOINT LeftHandMiddle3
                          {
                            OFFSET 2.47579 0 0
                            CHANNELS 3 Zrotation Xrotation Yrotation
                            End Site
                            {
                              OFFSET 1.975 0 0
                            }
                          }
                        }
                      }
                    }
                    JOINT LeftInHandRing
                    {
                      OFFSET 3.36516 0.537895 -0.128947
                      CHANNELS 3 Zrotation Xrotation Yrotation
                      JOINT LeftHandRing1
                      {
                        OFFSET 4.63474 -0.022105 -0.478947
                        CHANNELS 3 Zrotation Xrotation Yrotation
                        JOINT LeftHandRing2
                        {
                          OFFSET 3.44238 0 0
                          CHANNELS 3 Zrotation Xrotation Yrotation
                          JOINT LeftHandRing3
                          {
                            OFFSET 2.3881 0 0
                            CHANNELS 3 Zrotation Xrotation Yrotation
                            End Site
                            {
                              OFFSET 1.857 0 0
                            }
                          }
                        }
                      }
                    }
                    JOINT LeftInHandPinky
                    {
                      OFFSET 3.16105 0.469368 -1.20179
                      CHANNELS 3 Zrotation Xrotation Yrotation
                      JOINT LeftHandPinky1
                      {
                        OFFSET 4.14105 -0.022105 -1.09053
                        CHANNELS 3 Zrotation Xrotation Yrotation
                        JOINT LeftHandPinky2
                        {
                          OFFSET 2.75653 0 0
                          CHANNELS 3 Zrotation Xrotation Yrotation
                          JOINT LeftHandPinky3
                          {
                            OFFSET 1.74189 0 0
                            CHANNELS 3 Zrotation Xrotation Yrotation
                            End Site
                            {
                              OFFSET 1.645 0 0
                            }
                          }
                        }
                      }
                    }
                  }
                }
              }
            }
          }
        }
      }
    }
  }
}
MOTION
Frames: 2
Frame Time: 0.00833333
3.150000000000000000e+03 0.000000000000000000e+00 0.000000000000000000e+00 0.000000000000000000e+00 0.000000000000000000e+00 0.000000000000000000e+00 2.111499999999999488e+01 8.195570000000005351e-01 -1.404239999999999782e+02 3.414080000000000581e+01 -3.846080000000000609e+01 2.879889999999999617e+01 -6.846140000000000114e+00 1.679249999999999332e+01 -2.647269999999999790e+00 1.239909999999999890e+01 1.574000000000000199e+01 5.870060000000000855e+01 3.099589999999999890e+01 -1.170379999999999754e+01 2.028269999999999840e+01 -2.336530000000000129e+01 4.346419999999999817e+01 2.418350000000000222e+01 8.821620000000001127e+00 -2.151749999999999829e+01 2.028540000000000276e+01 -2.488239999999999785e+00 -2.032950000000000479e+00 -9.376169999999998339e+00 -6.019339999999999691e-01 -5.882689999999999308e-01 -2.318139999999999201e+00 -1.004999999999999893e+00 -1.000980000000000203e+00 -3.832429999999999559e+00 -7.410170000000000368e-01 -4.973769999999999580e-01 2.722199999999999953e+00 2.303999999999998272e-01 -8.237470000000001846e+00 4.331650000000000489e+01 -1.180860000000000198e+01 9.812599999999999767e+00 2.624759999999999849e+01 -2.084169999999999412e+00 1.222550000000000026e+00 5.704799999999999649e+00 2.876879999999999882e+01 -7.015449999999998454e+01 9.942749999999982435e-01 4.685679999999999978e+01 6.610599999999998921e+00 1.157080000000000268e+02 1.164629999999999832e+01 -1.848150000000000048e+01 2.851210000000000022e+00 2.818400000000000105e+01 1.072940000000000005e+01 1.915919999999999845e+01 -1.018560000000000048e-14 3.478729999999999632e-15 -1.000000000000000000e+01 6.316310000000001064e-15 1.192710000000000008e-15 -1.000000000000000000e+01 3.776909999999999283e-15 1.590280000000000471e-15 3.975690000000000513e-16 1.998179999999999978e+01 8.718970000000000331e-01 2.396399999999999864e+00 2.400000000000000000e+01 -3.180549999999999982e-15 -1.113190000000000247e-14 2.000000000000000000e+01 -6.758679999999998824e-15 -1.590279999999999880e-15 3.776909999999999283e-15 1.590280000000000471e-15 3.975690000000000513e-16 2.000000000000000000e+01 -1.590280000000000274e-15 9.541660000000000512e-15 2.400000000000000000e+01 0.000000000000000000e+00 -1.590279999999999880e-15 2.000000000000000000e+01 7.156249999999999484e-15 1.590280000000000274e-15 3.776909999999999283e-15 1.590280000000000471e-15 3.975690000000000513e-16 1.997479999999999833e+01 -1.025649999999999951e+00 -2.819380000000000219e+00 2.400000000000000000e+01 9.541659999999998934e-15 -7.951390000000000804e-15 2.000000000000000000e+01 6.361109999999999741e-15 9.541659999999998934e-15 3.776909999999999283e-15 1.590280000000000471e-15 3.975690000000000513e-16 1.978150000000000119e+01 -3.009479999999999933e+00 -8.305149999999999366e+00 2.400000000000000000e+01 3.180550000000000376e-15 1.590280000000000274e-15 2.000000000000000000e+01 6.361109999999998952e-15 7.951389999999999226e-15 8.787080000000001334e+00 -2.580970000000000297e+01 -5.499999999999999289e+01 -3.071790000000000020e+01 2.223269999999999769e+01 -9.784810000000000230e+01 4.099509999999999366e+01 -3.855430000000000135e+00 -3.505810000000001025e+01 -2.776219999999999999e+01 -1.546410000000000196e+01 -1.814880000000000138e+01 -2.818400000000000105e+01 1.072940000000000005e+01 -1.915919999999999845e+01 -2.736449999999999727e-15 6.361109999999998952e-15 1.000000000000000000e+01 -5.618010000000001530e-15 -4.770830000000000256e-15 1.000000000000000000e+01 5.305069999999999250e-15 -6.361110000000000530e-15 -3.578119999999999853e-15 -1.998179999999999978e+01 8.718970000000000331e-01 -2.396399999999999864e+00 -2.400000000000000000e+01 -7.156249999999997906e-15 3.975690000000000513e-15 -2.000000000000000000e+01 3.975689999999999527e-16 1.311979999999999992e-14 5.305069999999999250e-15 -6.361110000000000530e-15 -3.578119999999999853e-15 -2.000000000000000000e+01 -1.272219999999999993e-14 2.226389999999999955e-14 -2.400000000000000000e+01 -2.136939999999999971e-15 6.758679999999999612e-15 -2.000000000000000000e+01 2.534500000000000459e-15 9.541660000000000512e-15 5.305069999999999250e-15 -6.361110000000000530e-15 -3.578119999999999853e-15 -1.997479999999999833e+01 -1.025649999999999951e+00 2.819380000000000219e+00 -2.400000000000000000e+01 3.180550000000000376e-15 6.038079999999998908e-15 -2.000000000000000000e+01 -3.975689999999999527e-16 -2.882379999999999714e-15 5.305069999999999250e-15 -6.361110000000000530e-15 -3.578119999999999853e-15 -1.978150000000000119e+01 -3.009479999999999933e+00 8.305149999999999366e+00 -2.400000000000000000e+01 -1.590280000000000668e-15 1.272219999999999677e-14 -2.000000000000000000e+01 3.180549999999999587e-15 8.348959999999999886e-15
3.150000000000000000e+03 0.000000000000000000e+00 0.000000000000000000e+00 0.000000000000000000e+00 0.000000000000000000e+00 0.000000000000000000e+00 2.113100000000000378e+01 8.765090000000004267e-01 -1.405310000000000059e+02 3.421030000000000371e+01 -3.843059999999999832e+01 2.881109999999999616e+01 -6.840059999999999363e+00 1.678199999999999648e+01 -2.646829999999999572e+00 1.234319999999999951e+01 1.580030000000000001e+01 5.879050000000000864e+01 3.101160000000000494e+01 -1.169309999999999761e+01 2.029980000000000828e+01 -2.333500000000000085e+01 4.348400000000000176e+01 2.419690000000000296e+01 8.831599999999998118e+00 -2.149510000000000076e+01 2.034819999999999851e+01 -2.501500000000000057e+00 -2.050549999999999429e+00 -9.372320000000000206e+00 -6.036529999999997731e-01 -5.930900000000001171e-01 -2.319900000000000073e+00 -1.006499999999999950e+00 -1.009060000000000290e+00 -3.832179999999999254e+00 -7.381770000000000831e-01 -4.954180000000001360e-01 2.723769999999999580e+00 2.298290000000000610e-01 -8.177379999999999427e+00 4.330350000000000676e+01 -1.174359999999999893e+01 9.791969999999999175e+00 2.625430000000000064e+01 -2.024550000000000516e+00 1.284839999999999982e+00 5.809359999999998081e+00 2.832250000000000512e+01 -7.025889999999998281e+01 5.468260000000029208e-01 4.657860000000000156e+01 6.588250000000000384e+00 1.158460000000000178e+02 1.160340000000000238e+01 -1.839820000000000277e+01 2.918729999999999158e+00 2.818400000000000105e+01 1.072940000000000005e+01 1.915919999999999845e+01 3.273879999999999469e-15 2.683589999999999890e-15 -1.000000000000000000e+01 3.721629999999999694e-15 0.000000000000000000e+00 -1.000000000000000000e+01 9.740450000000002308e-15 0.000000000000000000e+00 2.782989999999999888e-15 1.998179999999999978e+01 8.718970000000000331e-01 2.396399999999999864e+00 2.400000000000000000e+01 -3.975690000000000513e-15 -1.113190000000000247e-14 2.000000000000000000e+01 -9.541660000000002090e-15 -3.180549999999999193e-15 9.740450000000002308e-15 0.000000000000000000e+00 2.782989999999999888e-15 2.000000000000000000e+01 -4.770830000000001045e-15 8.746530000000000547e-15 2.400000000000000000e+01 1.590280000000000274e-15 -1.590280000000000077e-15 2.000000000000000000e+01 6.361110000000000530e-15 0.000000000000000000e+00 9.740450000000002308e-15 0.000000000000000000e+00 2.782989999999999888e-15 1.997479999999999833e+01 -1.025649999999999951e+00 -2.819380000000000219e+00 2.400000000000000000e+01 9.541660000000000512e-15 -7.951389999999999226e-15 2.000000000000000000e+01 7.156249999999999484e-15 1.590280000000001063e-15 9.740450000000002308e-15 0.000000000000000000e+00 2.782989999999999888e-15 1.978150000000000119e+01 -3.009479999999999933e+00 -8.305149999999999366e+00 2.400000000000000000e+01 4.770830000000000256e-15 -2.385420000000000017e-15 2.000000000000000000e+01 6.361109999999999741e-15 4.770829999999998678e-15 8.763960000000000861e+00 -2.578940000000000055e+01 -5.511610000000000298e+01 -3.078559999999999519e+01 2.226200000000000401e+01 -9.762800000000001432e+01 4.103419999999999845e+01 -3.882769999999998944e+00 -3.528900000000000858e+01 -2.781340000000000146e+01 -1.542390000000000150e+01 -1.828540000000000276e+01 -2.818400000000000105e+01 1.072940000000000005e+01 -1.915919999999999845e+01 6.841110000000005963e-16 -1.590279999999999485e-15 1.000000000000000000e+01 -6.501109999999999649e-15 -4.770830000000000256e-15 1.000000000000000000e+01 7.696689999999999249e-15 -6.162320000000001100e-15 -3.379340000000000201e-15 -1.998179999999999978e+01 8.718970000000000331e-01 -2.396399999999999864e+00 -2.400000000000000000e+01 -7.156249999999997906e-15 4.770829999999999467e-15 -2.000000000000000000e+01 7.951390000000001198e-16 1.391490000000000213e-14 7.696689999999999249e-15 -6.162320000000001100e-15 -3.379340000000000201e-15 -2.000000000000000000e+01 -1.302039999999999834e-14 2.305899999999999860e-14 -2.400000000000000000e+01 -2.366779999999999777e-15 7.553820000000000144e-15 -2.000000000000000000e+01 2.484809999999999843e-15 1.033680000000000183e-14 7.696689999999999249e-15 -6.162320000000001100e-15 -3.379340000000000201e-15 -1.997479999999999833e+01 -1.025649999999999951e+00 2.819380000000000219e+00 -2.400000000000000000e+01 2.385420000000000411e-15 6.215130000000000473e-15 -2.000000000000000000e+01 3.975689999999999034e-16 -2.882380000000000109e-15 7.696689999999999249e-15 -6.162320000000001100e-15 -3.379340000000000201e-15 -1.978150000000000119e+01 -3.009479999999999933e+00 8.305149999999999366e+00 -2.400000000000000000e+01 -2.385420000000000411e-15 1.351739999999999833e-14 -2.000000000000000000e+01 6.361109999999999741e-15 9.144089999999999852e-15
